<svg xmlns="http://www.w3.org/2000/svg" width="600" height="800" viewBox="0 0 600 800"><defs><filter id="paper"><feTurbulence type="fractalNoise" baseFrequency=".5" numOctaves="3" stitchTiles="stitch"/><feColorMatrix type="saturate" values="0"/><feComponentTransfer><feFuncA type="linear" slope=".07"/></feComponentTransfer><feBlend in="SourceGraphic" mode="multiply"/></filter></defs><g filter="url(#paper)"><rect width="600" height="800" fill="#e6e8dd"/><path d="M267 751c37-190 39-365 64-620" fill="none" stroke="#465343" stroke-width="5"/><g fill="#6a7961"><path d="M316 316C105 284 94 123 135 87c178 75 195 129 181 229z"/><path d="M318 405c-2-193 134-244 213-220-14 154-94 205-213 220z"/><path d="M300 510C99 502 48 380 81 330c153 1 237 71 219 180z"/><path d="M289 620c35-168 146-210 237-161-42 133-125 163-237 161z"/></g><g fill="none" stroke="#b7bea7" stroke-width="2"><path d="M315 315 147 112M322 395 508 205M299 505 100 349M291 614 504 473"/></g></g></svg>